<svg width="930px" height="350" id="js-features-branch-diagram-svg" xmlns="http://www.w3.org/2000/svg">
    <path d="M66.2711864,5.96363636 C135.523206,5.96363636 143.460673,112 191.02837,112 C238.596067,112 681.049887,112 725.83852,112 C770.627152,112 786.056674,5.95721244 855.110732,5.96363636" id="js-branch-diagram-branch" stroke="#4182C4" stroke-width="4" fill="none">
    </path>
    <path d="M0,7 L766,7 L920,7" id="js-branch-diagram-master" stroke="#c6d9ed" stroke-width="8">
    </path>
    <path id="js-branch-diagram-arrow" d="M907.2,10 C910.98,8.95 915.22,8.05 918,7 C914.22,5.95 910.98,5.05 907.2,4" stroke="#c6d9ed" stroke-width="8" fill="none">
    </path>
    <desc>Created with Snap</desc>
    <defs>
    </defs>
    <line x1="88" x2="88" y1="20" y2="266" stroke="#932d70" style="stroke-width: 1px; stroke-dasharray: none;">
    </line>
    <g>
        <circle cx="88" cy="266" r="14" fill="#932d70">
        </circle>
        <circle cx="88" cy="266" r="10" fill="#932d70" stroke="#ffffff" style="stroke-width: 2px;">
        </circle>
    </g>
    <line x1="232.5" x2="345.5" y1="170" y2="170" stroke="#d4d4d4" style="stroke-width: 1px; stroke-dasharray: 3px;">
    </line>
    <line x1="232.5" x2="232.5" y1="140" y2="170" stroke="#d4d4d4" style="stroke-width: 1px; stroke-dasharray: 3px;">
    </line>
    <line x1="345.5" x2="345.5" y1="140" y2="170" stroke="#d4d4d4" style="stroke-width: 1px; stroke-dasharray: 3px;">
    </line>
    <line x1="289" x2="289" y1="170" y2="226" stroke="#d4d4d4" style="stroke-width: 1px; stroke-dasharray: 3px;">
    </line>
    <g>
        <circle cx="289" cy="226" r="7" fill="#4183c4">
        </circle>
        <circle cx="289" cy="226" r="5" fill="#4183c4" stroke="#ffffff" style="stroke-width: 2px;">
        </circle>
    </g>
    <line x1="423" x2="423" y1="137" y2="226" stroke="#d4d4d4" style="stroke-width: 1px; stroke-dasharray: 3px;">
    </line>
    <g>
        <circle cx="423" cy="226" r="7" fill="#4183c4">
        </circle>
        <circle cx="423" cy="226" r="5" fill="#4183c4" stroke="#ffffff" style="stroke-width: 2px;">
        </circle>
    </g>
    <line x1="477.5" x2="622.5" y1="170" y2="170" stroke="#d4d4d4" style="stroke-width: 1px; stroke-dasharray: 3px;">
    </line>
    <line x1="477.5" x2="477.5" y1="140" y2="170" stroke="#d4d4d4" style="stroke-width: 1px; stroke-dasharray: 3px;">
    </line>
    <line x1="622.5" x2="622.5" y1="140" y2="170" stroke="#d4d4d4" style="stroke-width: 1px; stroke-dasharray: 3px;">
    </line>
    <line x1="550" x2="550" y1="170" y2="226" stroke="#d4d4d4" style="stroke-width: 1px; stroke-dasharray: 3px;">
    </line>
    <g>
        <circle cx="550" cy="226" r="7" fill="#4183c4">
        </circle>
        <circle cx="550" cy="226" r="5" fill="#4183c4" stroke="#ffffff" style="stroke-width: 2px;">
        </circle>
    </g>
    <line x1="688" x2="688" y1="137" y2="226" stroke="#d4d4d4" style="stroke-width: 1px; stroke-dasharray: 3px;">
    </line>
    <g>
        <circle cx="688" cy="226" r="7" fill="#4183c4">
        </circle>
        <circle cx="688" cy="226" r="5" fill="#4183c4" stroke="#ffffff" style="stroke-width: 2px;">
        </circle>
    </g>
    <line x1="840" x2="840" y1="20" y2="227" stroke="#d4d4d4" style="stroke-width: 1px; stroke-dasharray: 3px;">
    </line>
    <g>
        <circle cx="840" cy="227" r="7" fill="#4183c4">
        </circle>
        <circle cx="840" cy="227" r="5" fill="#4183c4" stroke="#ffffff" style="stroke-width: 2px;">
        </circle>
    </g>
</svg>
